<?xml version="1.0" encoding="UTF-8"?>
<svg id="Layer_1" data-name="Layer 1" xmlns="http://www.w3.org/2000/svg" viewBox="0 0 247.4 81.19">
  <defs>
    <style>
      .cls-1 {
        fill: #000;
        stroke-width: 0px;
      }
    </style>
  </defs>
  <path class="cls-1" d="M4.21,65.3c.75-1.28,1.4-2.43,2.09-3.57.84-1.38,1.71-2.74,2.56-4.12.57-.92,1.11-1.85,1.67-2.78.47-.78.99-1.45,1.96-1.69.31-.08.56-.49.77-.79.74-1.08,1.46-2.18,2.16-3.28.24-.38.39-.83.63-1.21.41-.67,1.1-.86,1.83-1,.22-.04.45-.19.6-.36.98-1.17,1.12-2.52.92-3.99-.1-.72-.65-1.01-1.01-1.48-.59-.76-1.27-1.47-1.74-2.29-1.17-2.06-1.81-4.29-1.96-6.67-.04-.59-.23-1.19-.18-1.77.15-1.75.26-3.53.63-5.24.49-2.23,1.46-4.3,2.89-6.12,1.84-2.35,4.15-4.11,6.79-5.49,3.42-1.78,7.08-2.73,10.86-3.28.77-.11.83-.07,1.02.71.08.34.2.68.24,1.02.06.59.39.77.93.77,2.61.04,5.08.72,7.35,1.97,1.23.68,2.32,1.58,3.49,2.37.13.09.34.15.48.11,2.05-.57,3.38-.39,4.59,1.47.56.86,1.02,1.81,1.41,2.76.83,2.03,1.16,4.19,1.54,6.34.11.66.48,1.33.9,1.86.79.99,1.68,1.91,2.57,2.81.17.18.55.28.8.23.76-.12,1.51-.33,2.27-.52.39-.09.59-.05.45.44-.42,1.47-.92,2.89-1.79,4.16-.55.79-1.03,1.63-1.6,2.4-.82,1.1-1.67,2.17-2.56,3.21-.84.98-1.72,1.93-2.63,2.83-1.35,1.34-2.74,2.66-4.15,3.94-.84.77-1.61,1.51-1.79,2.73-.11.77-.45,1.5-.72,2.35-.83-1.27-1.92-2.04-3.3-2.39-.08-.02-.18-.11-.21-.18-.54-1.38-1.81-2.18-2.68-3.29-.75-.95-1.63-1.79-2.46-2.68-.89-.96-1.78-1.92-2.66-2.89-.82-.9-1.63-1.81-2.44-2.71-1.02-1.13-2.04-2.25-3.06-3.37-.06.02-.11.05-.17.07.11.36.13.78.34,1.08.84,1.22,1.73,2.4,2.6,3.61.8,1.11,1.58,2.23,2.38,3.34.88,1.22,1.78,2.42,2.64,3.65.58.82,1.18,1.63,1.66,2.51.99,1.8,2.12,3.47,3.51,5,.91,1,1.67,2.12,2.55,3.15.83.98,1.75,1.88,2.58,2.86.38.45.72.97.93,1.52.57,1.47.78,3.03.82,4.6.05,2.08.02,4.16.02,6.24,0,.07-.03.14-.07.31-.49-.57-.93-1.07-1.35-1.58-2.05-2.45-4.26-4.73-6.79-6.69-3.7-2.87-7.74-5.06-12.34-6.11-3.18-.72-6.39-.77-9.6-.18-4.52.84-8.88,2.22-13.17,3.81-1.28.48-2.57.95-3.98,1.47ZM59,36.67c-.86.13-1.55.23-2.24.34-.1.02-.22.09-.28.17-.72.88-1.4,1.78-2.14,2.64-.77.88-1.59,1.73-2.42,2.57-1.32,1.32-2.67,2.61-3.99,3.94-.11.11-.14.48-.05.56.71.7,1.41,1.01,2.18.16.53-.58,1.12-1.12,1.64-1.71,1.35-1.53,2.7-3.06,4.02-4.61.87-1.03,1.69-2.1,2.54-3.15.21-.26.43-.52.74-.9ZM55.33,32.69c-.35-.81-.67-1.46-.93-2.14-.13-.33-.31-.48-.66-.55-2.31-.51-4.62-1.06-6.93-1.58-.63-.14-1.26-.26-1.97-.41.34,1,.62,1.87.94,2.74.04.12.24.23.38.26,1.2.24,2.4.45,3.61.67,1.79.33,3.59.65,5.56,1.01ZM54.29,37.03c-.5,0-.87.04-1.22,0-.74-.1-1.21.26-1.67.8-.76.89-1.6,1.72-2.41,2.57-1.13,1.19-2.26,2.37-3.38,3.56-.25.26-.44.58-.65.87.32.21.65.42.96.64.34.25.62.21.89-.1,1.06-1.19,2.12-2.39,3.19-3.58.86-.96,1.74-1.9,2.61-2.86.54-.59,1.06-1.19,1.69-1.9ZM50.48,36.91c-.41-.05-.74-.06-1.06-.14-1.11-.28-1.87.03-2.62.98-1.42,1.81-3.04,3.48-4.6,5.23.39.3.75.53,1.06.82.28.26.47.16.68-.06,1.01-1.06,2.03-2.12,3.04-3.17,1.14-1.2,2.28-2.39,3.49-3.66ZM46.33,36.57c-.64-.15-1.16-.29-1.7-.38-.16-.03-.4,0-.51.11-.53.51-1.02,1.06-1.53,1.58-.82.85-1.62,1.7-2.46,2.53-.55.54-.57.72.03,1.22.25.2.49.6.73.6.24,0,.48-.39.71-.62.11-.11.2-.24.31-.35.86-.91,1.73-1.81,2.59-2.71.59-.63,1.17-1.27,1.82-1.97Z"/>
  <path class="cls-1" d="M168.16,40.79c-2.06,2.89-4.92,4.07-8.3,4.28-1.98.13-3.92-.03-5.82-.61-2.25-.69-4.22-1.81-5.71-3.68-1.88-2.36-2.38-5.08-2.13-8.02.1-1.18.45-2.28.92-3.34.69-1.51,1.73-2.78,3.09-3.76,2.89-2.08,6.15-2.73,9.64-2.52,1.7.11,3.34.43,4.91,1.11,1.72.74,3.18,1.82,4.29,3.34.11.15.24.3.39.49-.68.32-1.33.65-2.01.92-.14.06-.46-.07-.56-.21-1.54-2.11-3.73-3.07-6.22-3.45-1.99-.31-3.96-.17-5.87.46-2.21.73-3.96,2.02-5.05,4.15-.9,1.74-1.21,3.59-.92,5.45.57,3.74,2.76,6.18,6.44,7.14,3.06.8,6.08.71,8.95-.79,1.03-.53,1.9-1.3,2.46-2.31.49-.88.82-1.86,1.18-2.8.16-.42-.02-.61-.52-.6-2.65.02-5.29,0-7.94.02-.5,0-.68-.12-.67-.65.02-1.3,0-1.3,1.28-1.3,3.27,0,6.54.01,9.8-.01.53,0,.69.14.69.68-.03,3.13-.02,6.26,0,9.39,0,.52-.14.66-.66.65-1.6-.02-1.6,0-1.6-1.58,0-.76,0-1.52,0-2.27,0-.03-.03-.07-.08-.19Z"/>
  <path class="cls-1" d="M119.18,41.02c0-.21,0-.42,0-.63,0-5.42.01-10.85-.01-16.27,0-.61.17-.79.75-.73.56.06,1.36-.17,1.62.12.3.33.15,1.09.15,1.67,0,6.32,0,12.64.02,18.96,0,.57-.16.76-.72.7-.36-.04-.74-.04-1.11,0-.55.06-.89-.21-1.21-.62-1.17-1.48-2.38-2.93-3.56-4.4-.85-1.05-1.67-2.12-2.52-3.17-1.09-1.34-2.21-2.67-3.3-4.01-.84-1.03-1.66-2.08-2.49-3.12-.66-.82-1.34-1.62-2.12-2.56,0,.38,0,.58,0,.79,0,5.44,0,10.89.01,16.33,0,.56-.11.83-.73.75-.46-.06-.93-.02-1.4,0-.38.01-.54-.15-.5-.52.01-.12,0-.23,0-.35,0-6.55,0-13.1,0-19.66q0-.91.94-.91c.25,0,.51.04.76,0,.74-.14,1.17.26,1.59.78,1.15,1.44,2.34,2.86,3.5,4.3.85,1.05,1.67,2.12,2.53,3.16,1.09,1.34,2.21,2.67,3.31,4.01.84,1.03,1.65,2.08,2.49,3.12.62.77,1.26,1.54,1.88,2.31.05-.02.09-.03.14-.05Z"/>
  <path class="cls-1" d="M181.04,34.12c0-3.32.01-6.65-.01-9.97,0-.56.1-.84.73-.76.59.07,1.38-.14,1.72.18.3.27.12,1.09.12,1.67,0,2.41.02,4.82,0,7.23,0,.52.15.65.66.65,4.1-.02,8.21-.02,12.31,0,.53,0,.64-.16.64-.66-.02-2.8,0-5.6-.02-8.4,0-.55.17-.72.69-.67.48.04.97.02,1.46,0,.32,0,.47.12.45.44,0,.14,0,.27,0,.41,0,6.59,0,13.18,0,19.77q0,.81-.83.81c-.35,0-.7-.03-1.05,0-.55.06-.73-.12-.73-.7.03-2.66.01-5.32.01-7.99q0-1.01-1.02-1.01c-3.95,0-7.9.02-11.85-.02-.62,0-.74.19-.73.76.03,2.78,0,5.56.02,8.34,0,.48-.14.66-.62.62-.46-.04-.94-.04-1.4,0-.45.04-.56-.15-.55-.57.02-1.87,0-3.73,0-5.6,0-1.52,0-3.03,0-4.55Z"/>
  <path class="cls-1" d="M92.69,23.54c-.7.74-1.4,1.48-2.11,2.2-.86.88-1.74,1.74-2.61,2.62-1.38,1.38-2.75,2.76-4.13,4.14-.29.29-.58.57-.84.88-.07.09-.08.36,0,.44,1.03,1.09,2.1,2.15,3.14,3.24.83.86,1.63,1.75,2.46,2.61,1.13,1.19,2.28,2.36,3.4,3.55.45.47.87.98,1.41,1.59-1.17,0-2.19.03-3.2-.02-.23-.01-.47-.32-.66-.52-1.92-2.03-3.84-4.06-5.76-6.1-.99-1.05-1.97-2.12-2.99-3.15-.2-.2-.56-.31-.85-.33-.54-.04-1.27-.18-1.56.1-.28.27-.13,1.02-.13,1.55,0,2.62-.02,5.25,0,7.87,0,.48-.12.66-.62.62-.54-.04-1.09-.02-1.63,0-.3,0-.43-.11-.41-.41,0-.12,0-.23,0-.35,0-6.63,0-13.26,0-19.89q0-.78.8-.78c.37,0,.74,0,1.11,0q.74,0,.74.77c0,2.62.01,5.25-.01,7.87,0,.49.17.55.62.62,1.35.23,2.19-.46,3.03-1.35,1.56-1.66,3.16-3.28,4.76-4.91.93-.95,1.87-1.89,2.82-2.83.1-.1.27-.17.4-.18.91-.02,1.82,0,2.73,0,.03.05.06.1.09.14Z"/>
  <path class="cls-1" d="M217.77,35.15c0,2.99-.02,5.99.01,8.98,0,.58-.17.75-.72.7-.5-.05-1.01-.02-1.52,0-.3,0-.44-.1-.42-.4.01-.17,0-.35,0-.52,0-5.89,0-11.78,0-17.67q0-.79-.79-.79c-1.77,0-3.54-.02-5.31,0-.49,0-.63-.15-.63-.63,0-1.42,0-1.42,1.41-1.42,4.63,0,9.26.01,13.89-.01.59,0,.76.15.74.74-.04,1.31-.01,1.31-1.34,1.31-1.58,0-3.15.02-4.73-.01-.5,0-.62.16-.61.63.02,3.03,0,6.07,0,9.1Z"/>
  <path class="cls-1" d="M133.45,34.12c0-3.3,0-6.61,0-9.91q0-.82.85-.82c.43,0,.86.03,1.28,0,.47-.04.59.15.59.6-.02,3.5,0,6.99,0,10.49,0,3.23-.01,6.45.01,9.67,0,.54-.15.73-.69.68-.42-.04-.86-.04-1.28,0-.58.05-.77-.13-.77-.74.03-3.32.01-6.64.01-9.97Z"/>
  <path class="cls-1" d="M163.21,57.32c-.54,1.42-1,2.68-1.5,3.93-.07.17-.33.32-.53.38-.21.06-.46,0-.7.02-.45.04-.67-.17-.8-.58-.38-1.29-.77-2.59-1.18-3.88-.21-.65-.45-1.3-.72-2.04.49,0,.86-.03,1.22.02.14.02.31.21.36.36.35,1.08.67,2.17,1.02,3.26.12.38.3.74.47,1.15.19-.42.38-.81.53-1.21.36-1.02.73-2.03,1.02-3.07.14-.48.4-.52.81-.52.39,0,.61.08.75.5.48,1.44,1.03,2.85,1.58,4.35.11-.21.21-.37.26-.54.37-1.18.72-2.36,1.12-3.53.1-.28.3-.66.53-.73.88-.27,1.11-.02.85.85-.54,1.77-1.1,3.53-1.68,5.29-.05.14-.26.22-.4.32-.01,0-.04,0-.06,0-1.35.1-1.33.09-1.77-1.2-.34-1.01-.76-2-1.19-3.12Z"/>
  <path class="cls-1" d="M143.54,58.89c.6.8,1.27,1.7,1.95,2.61-.89.37-1.53.16-2.02-.59-.42-.64-.86-1.28-1.34-1.88-.12-.15-.43-.19-.65-.19-.07,0-.19.3-.19.46-.02.62-.03,1.24,0,1.86.02.63-.43.47-.77.48-.32.01-.67.08-.66-.46.02-1.86,0-3.73.02-5.6,0-.14.16-.41.25-.41,1.2.02,2.42-.04,3.59.15,1.1.18,1.65,1.51,1.09,2.47-.26.44-.8.71-1.25,1.09ZM141.27,57.04c0,.92,0,.93.93.88.23-.01.46-.06.69-.08.49-.05.72-.33.73-.81,0-.48-.22-.79-.7-.85-.4-.05-.81-.02-1.22-.05-.34-.02-.46.13-.43.44.01.15,0,.31,0,.46Z"/>
  <path class="cls-1" d="M132.51,61.76c-1.44-.07-2.47-.27-3.3-1.05-1.64-1.56-1.34-4.02.55-5.06,1.77-.97,3.59-.88,5.23.42.24.19.37.52.55.79-.18.1-.34.23-.53.31-.37.16-.67.11-.97-.22-1.03-1.14-3.07-1.04-4.02.12-.93,1.14-.36,3.06,1.15,3.43,1.12.27,2.2.27,3.01-.77.19-.25,1.13-.16,1.3.12.05.08.02.29-.05.35-.39.37-.75.81-1.21,1.04-.63.3-1.35.43-1.71.53Z"/>
  <path class="cls-1" d="M121.7,61.75c-1.09-.06-1.99-.18-2.72-.83-.14-.13-.28-.27-.37-.43-.27-.48-.19-.63.34-.75.45-.1.81-.22,1.1.41.34.74,2.14.82,2.68.21.3-.34.22-.88-.21-1.08-.47-.22-.98-.36-1.47-.53-.44-.15-.89-.25-1.33-.42-.59-.22-1.04-.58-1.12-1.27-.08-.71.28-1.19.81-1.56,1.25-.86,3.54-.54,4.52.62.41.49.38.56-.2.72-.43.12-.74.17-1.07-.31-.43-.63-1.73-.72-2.35-.24-.16.13-.27.44-.25.65.02.18.22.43.39.49.69.24,1.41.41,2.11.62.7.21,1.39.47,1.66,1.21.39,1.04-.28,2.01-1.56,2.32-.37.09-.76.12-.98.15Z"/>
  <path class="cls-1" d="M97.93,61.76c-1.37-.08-2.42-.26-3.14-1.25-.32-.44-.28-.58.23-.72.47-.13.84-.27,1.17.36.35.67,1.88.83,2.5.35.18-.14.31-.47.29-.69-.02-.22-.23-.52-.43-.61-.49-.22-1.03-.33-1.55-.49-.5-.16-1.01-.29-1.47-.52-.89-.45-.87-2.08,0-2.64,1.24-.8,3.38-.62,4.46.4.18.17.23.47.34.71-.26.1-.51.25-.78.28-.18.02-.46-.06-.57-.2-.57-.76-1.78-.96-2.53-.36-.42.33-.44.71.01.97.4.22.85.35,1.29.49.5.16,1.01.26,1.51.44.85.3,1.2.78,1.2,1.59,0,.79-.36,1.32-1.18,1.61-.51.17-1.05.24-1.33.31Z"/>
  <path class="cls-1" d="M85.84,57.45c0,.58,0,1.17,0,1.75.01.95.56,1.42,1.57,1.46,1,.03,1.6-.58,1.63-1.48.04-1.18.03-2.37,0-3.56-.01-.47.24-.49.58-.47.33.02.73-.12.72.47-.03,1.36-.04,2.72-.05,4.08,0,.85-.53,1.39-1.22,1.69-1.21.52-2.45.53-3.62-.21-.56-.35-.9-.89-.94-1.51-.08-1.36-.04-2.72-.06-4.08,0-.37.17-.44.5-.45.89,0,.89-.02.9.85,0,.49,0,.97,0,1.46Z"/>
  <path class="cls-1" d="M149.77,58.39c0-.93,0-1.86,0-2.8,0-.32.1-.45.43-.44,1.17.01,2.33.02,3.5,0,.37,0,.46.15.45.49,0,.34-.05.55-.47.54-.68-.02-1.36,0-2.04,0-.32,0-.45.12-.45.44.01,1.54-.13,1.22,1.15,1.25.25,0,.51.01.76,0,.4-.02.66.05.66.56,0,.53-.3.54-.68.52-.49-.01-.97-.02-1.46.01-.15,0-.39.15-.4.26-.05.36-.06.74,0,1.1.02.12.29.28.45.29.66.03,1.32.03,1.98,0,.38-.01.51.13.5.51,0,.34-.05.55-.47.54-1.15-.02-2.29-.02-3.44,0-.41,0-.48-.18-.48-.53.02-.91,0-1.83,0-2.74Z"/>
  <path class="cls-1" d="M187.19,58.89c0,.76-.01,1.51,0,2.27,0,.34-.09.48-.46.49-.94.02-.94.04-.94-.89,0-1.28.01-2.56.02-3.84,0-.75,0-.75-.78-.75-.16,0-.31-.01-.47,0-.38.03-.61-.03-.61-.52,0-.51.26-.51.62-.5,1.32,0,2.64,0,3.96,0,.34,0,.61,0,.61.48,0,.47-.23.54-.62.54-1.35.03-1.35.03-1.35,1.38,0,.45,0,.89,0,1.34Z"/>
  <path class="cls-1" d="M107.22,58.97c0,.74-.02,1.48,0,2.22.02.55-.34.45-.66.46-.33.01-.6.03-.6-.46.02-1.5,0-2.99.02-4.49,0-.41-.12-.57-.53-.54-.29.02-.59-.02-.87,0-.42.03-.59-.1-.59-.55,0-.48.26-.47.6-.47,1.34,0,2.69.01,4.03,0,.36,0,.58.04.57.49,0,.41-.14.53-.54.54-1.44.02-1.44.03-1.44,1.46,0,.45,0,.89,0,1.34Z"/>
  <path class="cls-1" d="M78.44,57.63c0-.66.02-1.32,0-1.98-.01-.37.11-.51.49-.51.94,0,.94-.02.94.89,0,1.12-.01,2.25,0,3.37.02,1.53-.8,2.19-2.12,2.29-.61.05-1.25-.18-1.87-.32-.07-.02-.18-.29-.14-.36.22-.34.43-.71.97-.48.25.11.57.12.85.09.52-.06.86-.34.86-.91,0-.7,0-1.4,0-2.09h0Z"/>
  <path class="cls-1" d="M179.83,58.38c0,.91-.03,1.82.01,2.73.03.54-.26.55-.65.53-.38-.01-.78.09-.77-.54.03-1.82.01-3.64,0-5.47,0-.37.12-.5.51-.5.89,0,.89-.02.89.86,0,.79,0,1.59,0,2.38Z"/>
  <path class="cls-1" d="M193.84,61.73c-.31-.09-.73-.15-.75-.65-.01-.51.4-.62.78-.67.44-.06.78.27.77.67-.01.37-.33.65-.81.65Z"/>
</svg>